# xmcd
#
# Track frame offsets:
#	150
#	9150
#	24075
#	34200
#	46050
#	61650
#	69900
#	83812
#	90750
#	103800
#	112950
#	127425
#
# Disc length: 1783 seconds
#
# Revision: 1
# Processed by: cddbd v1.4PL0 Copyright (c) Steve Scherf et al.
# Submitted via: audiograbber 1.80.04
#
DISCID=8406f50c
DTITLE=Riders In the Sky - Three On the Trail
DYEAR=1980
DGENRE=Country
TTITLE0=Three On the Trail
TTITLE1=Ghost Riders In the Sky
TTITLE2=That's How the Yodel Was Born
TTITLE3=Don't Fence Me In
TTITLE4=Blue Montana Skies
TTITLE5=When Payday Rolls Around
TTITLE6=Cowboy Song
TTITLE7=Skyball Paint
TTITLE8=Blue Bonnet Lady
TTITLE9=Cielito Lindo
TTITLE10=Here Comes the Santa Fe
TTITLE11=So Long Saddle Pals
EXTD=
EXTT0=
EXTT1=
EXTT2=
EXTT3=
EXTT4=
EXTT5=
EXTT6=
EXTT7=
EXTT8=
EXTT9=
EXTT10=
EXTT11=
PLAYORDER=
